<svg xmlns="http://www.w3.org/2000/svg" viewBox="0 0 128.96 116.83"><defs><style>.cls-1,.cls-2,.cls-3{fill:none;stroke:#18587a;stroke-linecap:round;stroke-linejoin:round;}.cls-1{stroke-width:1.03px;}.cls-2{stroke-width:1.04px;}.cls-3{stroke-width:1.04px;}</style></defs><title>Asset 12</title><g id="Layer_2" data-name="Layer 2"><g id="Layer_1-2" data-name="Layer 1"><path class="cls-1" d="M23.13,60.78a2.4,2.4,0,0,1,0-4.65"/><path class="cls-2" d="M25.59.73,46.78,13.4v90.19L25.33,116S25.59,1,25.59.73Z"/><path class="cls-2" d="M25.59.52H23.35V116.31h2S25.59.86,25.59.52Z"/><path class="cls-2" d="M85,103.59H88.3v-93H41.78l5,2.84v.95h37.9S84.85,103.42,85,103.59Z"/><polyline class="cls-3" points="28.43 8.53 44.06 16.67 44.06 99.37 28.95 106.99"/><path class="cls-3" d="M36.18,12.54c.52,1.94,0,44.84,0,44.84"/><line class="cls-3" x1="36.31" y1="59.44" x2="36.31" y2="102.99"/><line class="cls-3" x1="28.97" y1="59.44" x2="43.81" y2="59.18"/><line class="cls-3" x1="28.97" y1="57.5" x2="43.81" y2="57.24"/><ellipse class="cls-3" cx="27.26" cy="58.45" rx="1.81" ry="2.33"/><line class="cls-2" x1="85.03" y1="103.69" x2="128.44" y2="103.69"/><line class="cls-2" x1="0.52" y1="103.69" x2="23.13" y2="103.69"/></g></g></svg>