<svg xmlns="http://www.w3.org/2000/svg" viewBox="0 0 19.28 29.95"><defs><style>.cls-1{fill:#fc624d;}.cls-1,.cls-2{stroke:#1a2b57;stroke-linejoin:round;stroke-width:0.43px;}.cls-2{fill:#f45140;}</style></defs><title>Asset 9</title><g id="Layer_2" data-name="Layer 2"><g id="Layer_1-2" data-name="Layer 1"><path class="cls-1" d="M12.11,5A5,5,0,0,1,9,13.94H8.92a5,5,0,0,1-1.82-.38,5.19,5.19,0,0,0,3.07,1.13h.06A5,5,0,0,0,12.11,5Z"/><path class="cls-2" d="M1.46,9.73A8.84,8.84,0,0,1,10.17,1h.06A8.48,8.48,0,0,1,14,1.84,8.46,8.46,0,0,0,9,.21H8.92A8.77,8.77,0,0,0,.21,9C.21,16.23,9,29.05,9,29.05l1.31.69S1.46,15.49,1.46,9.73Z"/><path class="cls-2" d="M5.28,9.61a5,5,0,0,1,5-5V.9A8.77,8.77,0,0,0,1.53,9.67c0,7.24,7.95,18.89,8.71,20v-15A5,5,0,0,1,5.28,9.61Z"/><path class="cls-1" d="M19.06,9.67A8.92,8.92,0,0,0,10.29.9h-.06V4.59h.06a5,5,0,0,1,0,10h-.06v15l.06.08S19.35,16,19.06,9.67Z"/></g></g></svg>