<svg xmlns="http://www.w3.org/2000/svg" viewBox="0 0 19.74 29.51"><defs><style>.cls-1{fill:#fc624d;}.cls-1,.cls-2{stroke:#1a2b57;stroke-linejoin:round;stroke-width:0.43px;}.cls-2{fill:#f45140;}</style></defs><title>Asset 6</title><g id="Layer_2" data-name="Layer 2"><g id="Layer_1-2" data-name="Layer 1"><path class="cls-1" d="M10.58.4A8.65,8.65,0,0,0,8.79.21H8.73V.63A8.75,8.75,0,0,1,10.58.4Z"/><path class="cls-1" d="M16,9.17a5,5,0,0,0-5-5h-.06c-.16,0-.31,0-.46.05A5,5,0,0,1,9.52,14a5,5,0,0,0,1.36.23h.06A5,5,0,0,0,16,9.17Z"/><path class="cls-2" d="M10.75,29.3,8.92,26.2C6.33,22,2.17,14.47,2.17,9.23A8.76,8.76,0,0,1,8.92.7V.28A8.77,8.77,0,0,0,.21,9C.21,14.91,9,28.76,9,28.76Z"/><path class="cls-2" d="M5.73,9.17a5,5,0,0,1,5-5V.46A8.77,8.77,0,0,0,2,9.23c0,7.24,7.95,18.89,8.71,20v-15A5,5,0,0,1,5.73,9.17Z"/><path class="cls-1" d="M19.52,9.23A8.92,8.92,0,0,0,10.75.46h-.06V4.15h.06a5,5,0,0,1,0,10h-.06v15l.06.08S19.81,15.53,19.52,9.23Z"/></g></g></svg>