<svg xmlns="http://www.w3.org/2000/svg" viewBox="0 0 278.76 149.9"><defs><style>.cls-1{isolation:isolate;}.cls-2{opacity:0.1;mix-blend-mode:darken;}.cls-3{fill:#52c0d8;}.cls-4,.cls-7{fill:#18587a;}.cls-5,.cls-6{fill:none;stroke:#18587a;stroke-width:0.23px;}.cls-10,.cls-11,.cls-12,.cls-13,.cls-14,.cls-16,.cls-17,.cls-5,.cls-6,.cls-7,.cls-8,.cls-9{stroke-linejoin:round;}.cls-6{stroke-dasharray:4.66;}.cls-10,.cls-11,.cls-12,.cls-13,.cls-14,.cls-16,.cls-17,.cls-7,.cls-8,.cls-9{stroke:#1a2b57;}.cls-11,.cls-12,.cls-16,.cls-17,.cls-7,.cls-8{stroke-width:0.4px;}.cls-13,.cls-8{fill:#a8d0e7;}.cls-11,.cls-9{fill:#009245;}.cls-10,.cls-9{stroke-width:0.32px;}.cls-10,.cls-12{fill:#1dcd9f;}.cls-13,.cls-14{stroke-width:0.41px;}.cls-14{fill:#8bbfd8;}.cls-15{fill:#1a2b57;}.cls-16{fill:#ebae77;}.cls-17{fill:#f5c484;}</style></defs><title>Asset 16</title><g class="cls-1"><g id="Layer_2" data-name="Layer 2"><g id="Layer_1-2" data-name="Layer 1"><polygon class="cls-2" points="1.7 79.99 118.66 149.9 278.76 78.62 159.26 21.75 6.79 78.11 1.7 79.99"/><polygon class="cls-3" points="0 60.24 116.96 130.15 277.06 58.87 157.56 2 0 60.24"/><polygon class="cls-4" points="0 60.24 0.06 73.39 116.74 142.52 276.58 72.03 277.06 58.87 116.09 129.26 0 60.24"/><polyline class="cls-5" points="223.17 82.6 185.11 64.65 242.09 42.15"/><polyline class="cls-5" points="42.72 86.39 92.21 67.13 67.89 54.25 111.69 38.57 128.26 46.51 96.19 58.53 141.46 81.5 170.67 70.29 209.58 88.49"/><polyline class="cls-5" points="31.49 78.98 67 65.62 43.45 53.31 113.26 27.46 124.45 33.22 124.43 33.22 180.03 12.63"/><polyline class="cls-5" points="190.78 17.68 134.77 38.53 151.57 47.56 119.37 59.68 142.26 70.38 230.42 36.51"/><polyline class="cls-6" points="37.26 82.49 78.7 66.19 55.65 53.38 113.39 32.89 139.7 46.4 108.27 58.5 142.03 75.5 235.39 39.18"/><line class="cls-6" x1="126.66" y1="36.85" x2="184.87" y2="14.97"/><line class="cls-6" x1="174.86" y1="65.49" x2="216.07" y2="85.28"/><polygon class="cls-7" points="229.87 38.05 229.95 15.51 231.37 15.2 231.34 37.48 229.87 38.05"/><path class="cls-8" d="M229.89,38.1l-1.24-.68V13.3l12.81,6.14V43.55l-1.36-.68V20.34L229.94,15.5S229.89,38.15,229.89,38.1Z"/><polygon class="cls-8" points="228.69 13.33 230.31 12.72 242.93 18.77 241.46 19.44 228.69 13.33"/><polygon class="cls-7" points="241.46 43.55 241.46 19.44 242.93 18.77 242.93 42.99 241.46 43.55"/><ellipse class="cls-2" cx="104.29" cy="78.07" rx="3.42" ry="0.85"/><ellipse class="cls-2" cx="112.06" cy="73.69" rx="3.42" ry="0.85"/><ellipse class="cls-2" cx="117.52" cy="77.59" rx="3.42" ry="0.85"/><ellipse class="cls-2" cx="151.1" cy="18.83" rx="3.39" ry="0.85"/><ellipse class="cls-2" cx="147.04" cy="16.33" rx="3.39" ry="0.85"/><path class="cls-9" d="M144,13.45a3.07,3.07,0,0,0,3.07,3.07V8S144,11.76,144,13.45Z"/><path class="cls-10" d="M147.09,8v8.5a3.07,3.07,0,0,0,3.07-3.07C150.16,11.76,147.09,8,147.09,8Z"/><path class="cls-9" d="M148,15.7a3.07,3.07,0,0,0,3.07,3.07v-8.5S148,14,148,15.7Z"/><path class="cls-10" d="M151.09,10.26v8.5a3.07,3.07,0,0,0,3.07-3.07C154.16,14,151.09,10.26,151.09,10.26Z"/><path class="cls-11" d="M108,69.71a3.83,3.83,0,0,0,3.83,3.83V62.93S108,67.6,108,69.71Z"/><path class="cls-12" d="M111.84,62.93V73.54a3.83,3.83,0,0,0,3.83-3.83C115.66,67.6,111.84,62.93,111.84,62.93Z"/><path class="cls-11" d="M100.51,74.21A3.83,3.83,0,0,0,104.34,78V67.43S100.51,72.1,100.51,74.21Z"/><path class="cls-12" d="M104.34,67.43V78a3.83,3.83,0,0,0,3.83-3.83C108.16,72.1,104.34,67.43,104.34,67.43Z"/><path class="cls-11" d="M113.51,73.71a3.83,3.83,0,0,0,3.83,3.83V66.93S113.51,71.6,113.51,73.71Z"/><path class="cls-12" d="M117.34,66.93V77.54a3.83,3.83,0,0,0,3.83-3.83C121.16,71.6,117.34,66.93,117.34,66.93Z"/><path class="cls-2" d="M244.94,43.92l-2.08-1-1.59.52.07.2L240,42.58v-.37l-7.33-3.46-1.25-1.17-1.67.6.22.46c-.13-.26-.22-.44-.22-.46l-1.24-.68L229.72,39l12.81,6.14,0,0Z"/><polygon class="cls-2" points="122.24 32.87 120.51 32.15 145.12 23.29 147.39 23.83 122.24 32.87"/><polygon class="cls-13" points="120.45 10.21 118.71 9.52 143.15 0.21 145.43 0.71 120.45 10.21"/><polygon class="cls-13" points="120.45 28.39 118.9 27.58 118.71 9.46 120.45 10.21 120.45 28.39"/><polygon class="cls-13" points="133.28 20.91 133.28 28.47 134.81 27.62 134.81 19.89 133.28 20.91"/><polygon class="cls-13" points="131.92 21.67 131.92 27.62 133.28 28.47 133.28 20.91 131.92 21.67"/><polygon class="cls-13" points="145.43 18.89 120.45 28.39 120.45 10.21 145.43 0.71 145.43 18.89"/><polygon class="cls-14" points="142.97 16.95 122.66 24.65 122.75 11.99 142.97 4.12 142.97 16.95"/><path class="cls-15" d="M127.65,16.81c-.18-1.16,1.11-1.76,1-2.64-.07-.43-.5-.63-1-.46a2,2,0,0,0-.84.61l-.51-.39a2.61,2.61,0,0,1,1.29-.93c.89-.29,1.74,0,1.87.86.19,1.26-1.17,1.84-1,2.75l0,.31-.73.24Zm.14,1.1.77-.26.11.75-.77.26Z"/><path class="cls-15" d="M132.25,15.29c-.15-1.16,1.17-1.76,1.05-2.64-.06-.43-.49-.63-1-.46a2.07,2.07,0,0,0-.86.61l-.51-.39a2.73,2.73,0,0,1,1.32-.93c.91-.29,1.75,0,1.86.86.16,1.26-1.23,1.84-1.11,2.75l0,.31-.74.24Zm.12,1.1.79-.26.09.75-.78.26Z"/><path class="cls-15" d="M137,13.78c-.12-1.16,1.23-1.76,1.14-2.64,0-.43-.47-.63-1-.46a2.17,2.17,0,0,0-.89.61l-.5-.39a2.86,2.86,0,0,1,1.36-.93c.92-.29,1.77,0,1.86.86.13,1.26-1.29,1.84-1.2,2.75l0,.31-.76.24Zm.09,1.1.8-.26.07.75-.8.26Z"/><polygon class="cls-2" points="177.8 75.02 172.18 72.9 179.28 70.33 177.44 69.83 170.49 72.26 162.19 69.12 163.24 70.86 168.74 72.87 161.69 75.33 163.61 76 170.48 73.51 178.88 76.58 177.8 75.02"/><polygon class="cls-16" points="171.19 71.71 168.82 72.75 168.82 66.64 171.19 65.59 171.19 71.71"/><polygon class="cls-16" points="172.34 72.41 169.98 73.44 169.98 67.33 172.34 66.29 172.34 72.41"/><polygon class="cls-16" points="169.98 73.44 168.82 72.75 168.82 66.64 169.98 67.33 169.98 73.44"/><polygon class="cls-16" points="171.19 65.59 172.34 66.29 169.98 67.33 168.82 66.64 171.19 65.59"/><polygon class="cls-17" points="176.14 66.23 178.51 63.71 171.04 61.51 170.95 59.81 168.27 58.79 168.37 60.91 162.34 59.41 159.63 61.94 161.67 64.97 177.72 69.23 176.14 66.23"/><polygon class="cls-16" points="179.99 63.25 178.42 63.77 176.14 66.23 177.72 69.23 179.13 68.32 177.89 66.11 179.99 63.25"/><polygon class="cls-17" points="172.5 59.29 170.95 59.81 168.27 58.79 169.79 58.3 172.5 59.29"/><polygon class="cls-17" points="162.34 59.41 163.95 58.87 168.31 59.95 168.37 60.91 162.34 59.41"/><polygon class="cls-16" points="172.5 59.29 170.95 59.81 171.04 61.51 178.42 63.77 179.99 63.25 172.57 60.92 172.5 59.29"/><polygon class="cls-17" points="160.56 57.26 162.16 57.67 164.61 59.95 163.25 63.06 161.78 62.25 162.86 59.96 160.56 57.26"/><polygon class="cls-16" points="164.61 59.95 162.07 57.62 169.36 54.88 169.32 53.17 171.92 51.95 171.97 54.08 177.87 52.14 180.77 54.47 178.95 57.64 163.25 63.06 164.61 59.95"/><polygon class="cls-17" points="167.73 52.77 169.32 53.17 171.92 51.95 170.36 51.58 167.73 52.77"/><polygon class="cls-17" points="177.87 52.14 176.23 51.73 171.97 53.12 171.97 54.08 177.87 52.14"/><polygon class="cls-17" points="167.73 52.77 169.32 53.17 169.36 54.88 162.16 57.67 160.56 57.26 167.78 54.4 167.73 52.77"/><polygon class="cls-2" points="72.53 55.71 84.15 62.08 85.4 54.96 79.53 52.21 72.53 55.71"/><polygon class="cls-17" points="79.74 48.67 72.2 54.57 83.49 60.82 79.74 48.67"/><path class="cls-15" d="M77.72,55.57a.41.41,0,0,1,.09-.19.35.35,0,0,1,.16-.11.47.47,0,0,1,.21,0,.74.74,0,0,1,.24.08,1,1,0,0,1,.39.39.82.82,0,0,1,.09.24.6.6,0,0,1,0,.24.41.41,0,0,1-.09.19.35.35,0,0,1-.16.11.46.46,0,0,1-.21,0,.74.74,0,0,1-.24-.09,1,1,0,0,1-.39-.39.81.81,0,0,1-.09-.24A.6.6,0,0,1,77.72,55.57ZM79,55.29l-1-.53.14-3,1,.49Z"/><polygon class="cls-16" points="79.73 48.71 84.82 53.34 83.49 60.82 79.73 48.71"/></g></g></g></svg>