<svg xmlns="http://www.w3.org/2000/svg" viewBox="0 0 184.14 97.5"><defs><style>.cls-1{isolation:isolate;}.cls-2{opacity:0.1;mix-blend-mode:darken;}.cls-3{fill:#52c0d8;}.cls-4{fill:#18587a;}.cls-5,.cls-6{fill:none;stroke:#18587a;stroke-miterlimit:10;stroke-width:0.15px;}.cls-6{stroke-dasharray:3.07;}</style></defs><title>Asset 17</title><g class="cls-1"><g id="Layer_2" data-name="Layer 2"><g id="Layer_1-2" data-name="Layer 1"><polygon class="cls-2" points="1.35 43.21 0.68 51.89 78.92 97.5 184.02 50.99 184.14 42.31 77.94 88.75 1.35 43.21"/><polygon class="cls-3" points="0.68 38.42 77.84 84.55 183.46 37.52 104.62 0 0.68 38.42"/><polygon class="cls-4" points="0.68 38.42 0 47.1 77.69 92.7 182.79 46.2 183.46 37.52 77.27 83.96 0.68 38.42"/><polyline class="cls-5" points="148.39 53.29 122.8 41.33 160.39 26.49"/><polyline class="cls-5" points="28.86 55.67 61.51 42.96 45.46 34.47 74.36 24.12 85.3 29.36 64.13 37.29 94 52.45 113.27 45.05 138.94 57.06"/><polyline class="cls-5" points="21.45 50.78 44.88 41.97 29.34 33.85 75.4 16.8 82.78 20.59 82.77 20.59 119.45 7.01"/><polyline class="cls-5" points="126.54 10.34 89.59 24.1 100.67 30.06 79.43 38.05 94.53 45.11 152.69 22.77"/><polyline class="cls-6" points="25.25 53.1 52.6 42.34 37.39 33.9 75.48 20.38 92.84 29.29 72.1 37.28 94.38 48.49 155.97 24.53"/><line class="cls-6" x1="84.24" y1="22.99" x2="122.64" y2="8.55"/><line class="cls-6" x1="116.03" y1="41.88" x2="143.22" y2="54.94"/></g></g></g></svg>