<svg xmlns="http://www.w3.org/2000/svg" viewBox="0 0 77.46 84.6"><defs><style>.cls-1{fill:#f6653c;}</style></defs><title>Asset 3</title><g id="Layer_2" data-name="Layer 2"><g id="Layer_1-2" data-name="Layer 1"><path class="cls-1" d="M43.2,7.35c10.94,2.34,11.51,2.6,21.57,9.77l.84-.94c-.55-.82-1.11-1.62-1.64-2.45a2.85,2.85,0,0,1-.44-.93c-.07-.34-.13-.85.05-1a1.18,1.18,0,0,1,1,0,19,19,0,0,1,6.22,5,26.81,26.81,0,0,1,2.61,3.68c.23.36.12.94.16,1.42a4.19,4.19,0,0,1-1.43-.2c-1-.55-2-1.24-3-1.93l-.86.95a38.79,38.79,0,1,1-34-13.31c.35-1.59.28-1.53-1.28-1.81a48.13,48.13,0,0,1-5.65-1.44c-.45-.14-1.06-.79-1-1.19s.63-1,1.09-1.16a37.88,37.88,0,0,1,6-1.43A42.1,42.1,0,0,1,47.58.92a12.51,12.51,0,0,1,3.06,1.16c1,.51,1,1.33,0,1.79a28,28,0,0,1-4,1.36,11.87,11.87,0,0,1-2.13.36C43,5.74,43,5.72,43.2,7.35Zm-4.47,5A33.54,33.54,0,1,0,72.25,46,33.51,33.51,0,0,0,38.72,12.32Z"/><path class="cls-1" d="M38.79,16.23V45.77h.29l5.67-29.11A24.12,24.12,0,0,0,38.79,16.23Z"/></g></g></svg>