<?xml version="1.0" standalone="no"?>
<!DOCTYPE svg PUBLIC "-//W3C//DTD SVG 20010904//EN"
 "http://www.w3.org/TR/2001/REC-SVG-20010904/DTD/svg10.dtd">
<svg version="1.0" xmlns="http://www.w3.org/2000/svg"
 width="16.000000pt" height="16.000000pt" viewBox="0 0 16.000000 16.000000"
 preserveAspectRatio="xMidYMid meet">
<metadata>
Created by potrace 1.11, written by Peter Selinger 2001-2013
</metadata>
<g transform="translate(0.000000,16.000000) scale(0.010884,-0.010884)"
fill="#000000" stroke="none">
<path d="M1033 1231 c-52 -14 -122 -60 -152 -102 -53 -72 -65 -203 -27 -278
27 -52 94 -107 198 -163 177 -94 225 -155 216 -278 -7 -104 -66 -156 -178
-154 -72 1 -110 16 -151 61 -42 44 -57 81 -83 195 -4 16 -13 28 -21 28 -12 0
-15 -18 -15 -99 0 -54 -3 -126 -7 -161 -6 -57 -5 -62 13 -58 10 1 21 14 24 28
8 30 14 29 105 -4 214 -78 427 33 451 236 15 130 -55 222 -246 323 -136 72
-183 113 -200 174 -32 120 35 221 146 221 80 0 163 -72 190 -167 9 -30 21 -53
29 -53 10 0 13 27 13 130 0 104 -3 130 -15 130 -7 0 -18 -11 -23 -25 -10 -28
-28 -27 -97 1 -41 18 -130 25 -170 15z"/>
<path d="M32 1208 c3 -8 25 -14 52 -16 40 -3 48 -7 56 -28 6 -15 10 -204 10
-449 l0 -424 -22 -15 c-12 -9 -39 -16 -60 -16 -21 0 -38 -4 -38 -10 0 -5 6
-10 13 -10 57 -1 355 -2 365 -1 6 1 12 5 12 10 0 4 -23 11 -51 14 -28 4 -57
12 -65 18 -11 9 -14 55 -14 228 l0 216 103 0 c82 0 111 4 148 21 106 49 159
127 159 235 0 117 -60 194 -175 224 -78 20 -499 22 -493 3z m438 -41 c19 -12
43 -37 53 -55 25 -42 33 -145 18 -210 -23 -95 -118 -152 -238 -143 -10 1 -13
49 -13 206 0 234 -4 224 91 225 42 0 64 -6 89 -23z"/>
</g>
</svg>
